<svg version="1.1"
	 xmlns="http://www.w3.org/2000/svg" xmlns:xlink="http://www.w3.org/1999/xlink" xmlns:a="http://ns.adobe.com/AdobeSVGViewerExtensions/3.0/"
	 x="0px" y="0px" width="23px" height="23px" viewBox="0 0 640 640" style="enable-background:new 0 0 640 640;"
	 xml:space="preserve">
<style type="text/css">
	.st0{fill-rule:evenodd;clip-rule:evenodd;fill:#7AC943;}
	.st1{fill:#FFFFFF;}
	.st2{fill:none;stroke:#FFFFFF;stroke-width:17;stroke-miterlimit:10;}
	.st3{fill-rule:evenodd;clip-rule:evenodd;fill:none;stroke:#FFFFFF;stroke-width:17;stroke-miterlimit:10;}
    #wpadminbar li#wp-admin-bar-logo div {
        display: flex;
        justify-content: center;
        align-items: center;
    }
</style>
<g id="simpleLaunchLogo">
	<circle class="st0" cx="320" cy="320" r="320"/>
	<g>
		<path class="st1" d="M122.7,376.1c6.6-15.6,16.7-28.6,29.9-37.8c11-7.7,23.4-12.5,37-14.4c-8.2,13.6-16.3,29.3-20.2,37.1
			c-17.1,0.4-33,5.5-46.3,14.8C123,375.9,122.8,376,122.7,376.1z"/>
		<path class="st1" d="M172.2,337.2c-3.1,5.8-6,11.2-8.1,15.5c-6.5,0.5-12.8,1.6-18.8,3.3c3.7-4,7.7-7.6,12.2-10.8
			C162,342,167,339.3,172.2,337.2 M203.3,314.4c-20.1,0-39.3,5.4-55.6,16.9c-24.2,17-38.1,44.3-41.4,75.6
			c5.4-9.6,12.6-17.8,21.7-24.2c12.9-9,27.9-13.3,43.7-13.3c1,0,2,0,3,0c0,0,18-37.2,31.3-55C205.1,314.4,204.2,314.4,203.3,314.4
			L203.3,314.4z"/>
	</g>
	<g>
		<path class="st1" d="M260,515.5c9.3-13.3,14.4-29.2,14.8-46.3c7.8-3.9,23.4-11.9,37.1-20.1c-2,13.6-6.8,26.2-14.4,37
			c-9.2,13.1-22.2,23.3-37.8,29.9C259.8,515.8,259.9,515.6,260,515.5z"/>
		<path class="st1" d="M298.6,466.4c-2.1,5.2-4.8,10.1-8.1,14.8c-3.1,4.4-6.7,8.5-10.8,12.2c1.7-6.1,2.8-12.4,3.3-18.8
			C287.4,472.4,292.8,469.6,298.6,466.4 M321.3,432.6c-17.8,13.3-55,31.3-55,31.3c0.6,16.9-3.7,33-13.3,46.7
			c-6.4,9.1-14.7,16.4-24.2,21.7c31.3-3.2,58.6-17.1,75.6-41.4C316.4,473.9,321.8,453.7,321.3,432.6L321.3,432.6z"/>
	</g>
	<g>
		<path class="st1" d="M494.9,142.4c-1.5,14.3-4.7,35.8-11.4,60.6c-7.1,26.1-16.6,50.9-28.4,73.5c-14.6,28-32.6,52.9-53.6,73.8
			c-42.2,42.2-87.8,76.2-129.7,96.6l-81.5-81.5c20.4-41.8,54.4-87.5,96.6-129.7c21-21,45.8-39,73.8-53.6
			c22.6-11.8,47.3-21.3,73.5-28.4C459.1,147.1,480.6,143.9,494.9,142.4 M513.2,124c0,0-140.3,1.7-238.3,99.7
			c-48.8,48.8-85.4,100.8-105,145.3l98.3,98.3c44.6-19.6,96.5-56.2,145.3-105C511.6,264.3,513.2,124,513.2,124L513.2,124z"/>
	</g>
	<g>
		<line class="st2" x1="180.7" y1="413" x2="130.5" y2="463.2"/>
	</g>
	<g>
		<line class="st2" x1="224.3" y1="456.6" x2="174.1" y2="506.8"/>
	</g>
	<g>
		<line class="st2" x1="201.6" y1="433.9" x2="118.8" y2="516.6"/>
	</g>

		<ellipse transform="matrix(0.7071 -0.7071 0.7071 0.7071 -76.3942 340.8353)" class="st3" cx="373.2" cy="262.6" rx="41.4" ry="41.4"/>
</g>
</svg>